<svg width="26" height="26" viewBox="0 0 26 26" fill="none" xmlns="http://www.w3.org/2000/svg">
<g id="material-symbols:search">
<path id="Vector" d="M21.2333 21.4231L14.4083 14.599C13.8667 15.0322 13.2438 15.3753 12.5396 15.628C11.8354 15.8807 11.0861 16.0071 10.2917 16.0071C8.32361 16.0071 6.65817 15.3254 5.29533 13.9621C3.9325 12.5987 3.25072 10.9335 3.25 8.96639C3.25 6.9986 3.93178 5.33338 5.29533 3.97073C6.65889 2.60808 8.32433 1.9264 10.2917 1.92567C12.2597 1.92567 13.9255 2.60736 15.2891 3.97073C16.6526 5.3341 17.3341 6.99933 17.3333 8.96639C17.3333 9.76073 17.2069 10.5099 16.9542 11.214C16.7014 11.9181 16.3583 12.5409 15.925 13.0825L22.75 19.9066L21.2333 21.4231ZM10.2917 13.8407C11.6458 13.8407 12.7971 13.367 13.7453 12.4196C14.6936 11.4722 15.1674 10.3211 15.1667 8.96639C15.1667 7.61241 14.6929 6.4617 13.7453 5.51428C12.7978 4.56685 11.6466 4.09277 10.2917 4.09205C8.9375 4.09205 7.78664 4.56612 6.83908 5.51428C5.89153 6.46243 5.41739 7.61313 5.41667 8.96639C5.41667 10.3204 5.89081 11.4714 6.83908 12.4196C7.78736 13.3677 8.93822 13.8415 10.2917 13.8407Z" fill="#E9D28F"/>
</g>
</svg>
